# xmcd
#
# Track frame offsets:
#	150
#	14250
#	26625
#	41100
#	55575
#	69750
#	84525
#	98700
#	112350
#	125700
#	138825
#	152431
#
# Disc length: 2204 seconds
#
# Revision: 0
# Processed by: cddbd v1.5.2PL0 Copyright (c) Steve Scherf et al.
# Submitted via: EasyCDDAExtractor 16.0.6.1
#
DISCID=98089a0c
DTITLE=Καζαντζίδης Στέλιος - Νυχτερίδες κι αράχνες-Σ. Καζαντζίδης
DYEAR=1973
DGENRE=Λαϊκή
TTITLE0=Καζαντζίδης Στέλιος-Μαρινέλλα - Νυχτερίδες κι αράχνες [Σ. Καζαντζίδη-Χ
TTITLE0=Νικολόπουλου-Κ. Βίρβου]
TTITLE1=Καζαντζίδης Στέλιος - Αλλοτινές μου εποχές [Απ. Καλδάρα-Ρέας Μανέλη]
TTITLE2=Καζαντζίδης Στέλιος - Πού ήσουν αδελφέ μου [Τάκη Παναγόπουλου]
TTITLE3=Καζαντζίδης Στέλιος-Μαρινέλλα - Ντροπή [Β. Βασιλειάδη-Β. Κανουσοπούλου
TTITLE3=]
TTITLE4=Καζαντζίδης Στέλιος - Ο επισκέπτης [Σ. Καζαντζίδη-Χ. Νικολόπουλου-Κ. Β
TTITLE4=ίρβου]
TTITLE5=Καζαντζίδης Στέλιος-Μαρινέλλα - Δεν σού έλειπε τίποτα [Β. Βασιλειάδη-Κ
TTITLE5=Βίρβου]
TTITLE6=Καζαντζίδης Στέλιος-Μαρινέλλα - Υπάρχει και Θεός [Β. Βασιλειάδη-Γιάννη
TTITLE6=Κιούρκα]
TTITLE7=Καζαντζίδης Στέλιος-Μαρινέλλα - Ανεμώνα [Απ. Καλδάρα]
TTITLE8=Καζαντζίδης Στέλιος-Μαρινέλλα - Μη με ρωτήσετε [Γ. Βασιλόπουλου-Ζεμανί
TTITLE8=δου-Ε. Ατραΐδη]
TTITLE9=Καζαντζίδης Στέλιος - Έπαιξα, έχασα και θα πληρώσω [Θ. Δερβενιώτη-Κ. Β
TTITLE9=ίρβου]
TTITLE10=Καζαντζίδης Στέλιος - Δεν μού 'δειξαν λίγη στοργή [Σ.Καζαντζίδη-Χ.Νικ
TTITLE10=ολόπουλου-Κ.Βίρβου]
TTITLE11=Καζαντζίδης Στέλιος-Μαρινέλλα - Ας παν' στην ευχή τα παλιά [Απ. Καλδά
TTITLE11=ρα]
EXTD=
EXTT0=
EXTT1=
EXTT2=
EXTT3=
EXTT4=
EXTT5=
EXTT6=
EXTT7=
EXTT8=
EXTT9=
EXTT10=
EXTT11=
PLAYORDER=
